<svg xmlns="http://www.w3.org/2000/svg" width="329" height="324.14" viewBox="0 0 329 324.14"><g id="Layer_2" data-name="Layer 2"><g id="Capa_1" data-name="Capa 1"><path d="M121.54,12.65a6.85,6.85,0,0,1-.46,6.17,9,9,0,0,1-4.88,3.69l-3.67,1.25,1.5,4.41L117.5,27l1.08,3.18-9.69,3.29-1.08-3.18,2.51-.85-5.23-15.37-2.5.85-1.08-3.17,9.69-3.29c2.69-.92,4.92-.95,6.67-.11A7.05,7.05,0,0,1,121.54,12.65Zm-4,1.42a3.92,3.92,0,0,0-2-2.46,5,5,0,0,0-3.77.16l-3,1,2.66,7.82,3-1a4.81,4.81,0,0,0,3-2.25A4.28,4.28,0,0,0,117.58,14.07Z" style="fill:#c59f61"/><path d="M157.41,22.75l-8.73,1.05-.4-3.33,2.32-.28-1.53-3-8.52,1-.85,3.27,2.56-.31.4,3.33-8.62,1-.4-3.33,2.1-.25L140.68,5l-3.33.4L137,2.1l7.33-.88L154.8,19.69l2.21-.27Zm-9.73-8.25-3.93-7.56-.21,0-2.21,8.3Z" style="fill:#c59f61"/><path d="M193.59,6.34,191,6l-2.43,19.44-2.25-.25L175.65,7.84l-.14,0L174,20.25l3.32.42L176.87,24l-9.49-1.18.41-3.33,2.52.32,2-16.11-2.87-.36L169.87,0l5.71.71,10.13,16.56.14,0,1.47-11.73L184,5.14l.41-3.32L194,3Z" style="fill:#c59f61"/><path d="M238.29,45.4l-8.09-4.33,1.58-3,2.34,1.25,3.13-5.85L227.7,28.4l-3.13,5.84,2.3,1.24-1.58,3L217.2,34.1l1.58-3,2.34,1.25,7.67-14.31-2.34-1.25L228,13.88l8.08,4.33-1.58,3-2.3-1.24-3,5.54,9.55,5.12,3-5.54-2.34-1.25L241,20.85l8.09,4.33-1.59,3-2.3-1.24-7.67,14.31,2.3,1.24Z" style="fill:#c59f61"/><path d="M271.91,58.77a12.08,12.08,0,0,1-8,4.06,11,11,0,0,1-8.69-3.2q-4-3.68-3.93-8.31a12.19,12.19,0,0,1,3.35-8.17,11.87,11.87,0,0,1,8-4.09,11,11,0,0,1,8.56,3.17,10.87,10.87,0,0,1,3.93,8.29A12,12,0,0,1,271.91,58.77ZM268.71,56a9.15,9.15,0,0,0,2.69-5.86,6.75,6.75,0,0,0-2.49-5.36,6.56,6.56,0,0,0-5.68-2,9.31,9.31,0,0,0-5.35,3.12,9.85,9.85,0,0,0-2.66,5.61c-.23,2,.61,3.94,2.5,5.67a6.53,6.53,0,0,0,5.62,1.95A9.4,9.4,0,0,0,268.71,56Z" style="fill:#c59f61"/><path d="M282.54,92.29l-3-4.42,4.8-9-2.14-3.11L277.45,79,279,81.17l-2.76,1.9L271,75.44l2.77-1.89,1.5,2.18,13.38-9.19-1.5-2.19,2.76-1.89,5.78,8.4q2.41,3.52,2.15,6.28a6.17,6.17,0,0,1-2.92,4.57A6.45,6.45,0,0,1,291,82.94a6.68,6.68,0,0,1-3.85-1.45l-3.4,6.57,1.6,2.33Zm9.9-14a3.11,3.11,0,0,0,1.62-2.48,7,7,0,0,0-1.52-3.62l-1.7-2.47-6.08,4.17,1.68,2.45c1.06,1.55,2.08,2.43,3,2.66A3.68,3.68,0,0,0,292.44,78.34Z" style="fill:#c59f61"/><path d="M314.41,116.89l-1-2.47-18.28,7-.85-2.09,10.31-17.57-.05-.13-11.69,4.49,1.2,3.13-3.13,1.2-3.43-8.93,3.13-1.2.91,2.37,15.16-5.81-1-2.7L308.83,93l2.06,5.38-9.83,16.73.05.14,11-4.24-1.2-3.13,3.13-1.2,3.46,9Z" style="fill:#c59f61"/><path d="M300.85,152l-2.34-17.31,3.32-.45.36,2.62,16.09-2.17-.36-2.63,3.32-.44,2.31,17.06-6.48,1.59-.73-3.28,3.44-1.18-1-7.24-6.3.85,1.35,10-3.32.45-1.35-10-6.47.87,1,7.49,3.63.22.17,3.36Z" style="fill:#c59f61"/><path d="M299.33,186.37l.79-8.75,3.34.3-.21,2.32,3.23-.88.77-8.55-3-1.51-.23,2.57-3.34-.3.78-8.65,3.34.3-.19,2.11,15.55,8.34.3-3.34,3.34.3-.66,7.35-20.25,6.47-.2,2.22Zm10.1-7.81,8.21-2.28,0-.21L310,172.2Zm16,4-.5-7.45,1.76-.34L329,182Z" style="fill:#c59f61"/><path d="M308,225.16l.86-2.51-18.53-6.34.7-2.15,19.17-6.87,0-.13-11.85-4-1.09,3.17-3.17-1.09,3.1-9.05,3.17,1.09-.82,2.4,15.36,5.26.94-2.74,3.17,1.09-1.86,5.44-18.28,6.54-.05.13L310,219.18l1.08-3.17,3.18,1.08-3.13,9.15Z" style="fill:#c59f61"/><path d="M282.1,253.59a11.52,11.52,0,0,1-5.33-7.12q-1-4.32,1.94-8.88l5.8-8.94,2.82,1.83-1.44,2.22,13.62,8.83,1.44-2.22,2.81,1.83-5.68,8.76q-3.15,4.86-7.45,5.64A11.46,11.46,0,0,1,282.1,253.59Zm2.25-3.55q6.78,4.41,11-2l2.05-3.17L283.75,236l-2.05,3.17Q277.52,245.62,284.35,250Z" style="fill:#c59f61"/><path d="M256.47,279.84a12.11,12.11,0,0,1-3.43-8.25,11,11,0,0,1,3.87-8.42,10.71,10.71,0,0,1,8.6-3.27,12.24,12.24,0,0,1,7.88,4,11.89,11.89,0,0,1,3.45,8.33A11,11,0,0,1,273,280.5a10.9,10.9,0,0,1-8.58,3.27A12.05,12.05,0,0,1,256.47,279.84Zm3-3a9.12,9.12,0,0,0,5.63,3.14,6.77,6.77,0,0,0,5.55-2.05,6.59,6.59,0,0,0,2.4-5.52,9.44,9.44,0,0,0-2.69-5.58,9.87,9.87,0,0,0-5.38-3.08,7.62,7.62,0,0,0-8.24,7.5A9.37,9.37,0,0,0,259.49,276.86Z" style="fill:#c59f61"/><path d="M228.53,292a6.23,6.23,0,0,1-.61-5.74,10.09,10.09,0,0,1,4.5-4.78,18.16,18.16,0,0,1,4.17-1.79,8.73,8.73,0,0,1,3.79-.34l2.11,4.86-2.87,1.31-1.36-2.47a7.24,7.24,0,0,0-2.23.43,12.7,12.7,0,0,0-1.65.78,7.92,7.92,0,0,0-2.6,2.29,2.63,2.63,0,0,0,.16,3,2.85,2.85,0,0,0,2.79,1.69,15.21,15.21,0,0,0,3.64-.85,31.72,31.72,0,0,1,3.26-.93,6.13,6.13,0,0,1,3.27.13,5.34,5.34,0,0,1,2.78,2.58q1.81,3.1.5,5.7a10,10,0,0,1-3.93,4.13,13.45,13.45,0,0,1-3.87,1.54,8.3,8.3,0,0,1-3.53.15l-2.64-4.06,2.57-1.84,1.77,2.4a7,7,0,0,0,2.1-.33,8.75,8.75,0,0,0,1.75-.78,5.19,5.19,0,0,0,2-2,2.68,2.68,0,0,0-2.51-3.74,15.58,15.58,0,0,0-3.14.68c-.94.3-2,.61-3.26.93a7.4,7.4,0,0,1-3.71,0A5.73,5.73,0,0,1,228.53,292Z" style="fill:#c59f61"/><path d="M198.21,296.59,214.77,291l1.07,3.17-2.51.85,5.19,15.38,2.5-.84,1.07,3.18-16.32,5.49L203,312.19l3.09-1.34,1.81,3.16,6.92-2.34-2-6-9.56,3.23-1.07-3.18,9.56-3.22-2.08-6.19-7.16,2.41.47,3.6-3.27.81Z" style="fill:#c59f61"/><path d="M148.82,301l8.79.09,0,3.35-2.33,0,1.13,3.15,8.58.08,1.26-3.13-2.57,0,0-3.35,8.68.08,0,3.35-2.12,0-7.06,16.17,3.35,0,0,3.36-7.38-.07L151,304.41l-2.22,0Zm8.6,9.44,2.92,8h.21l3.25-8Z" style="fill:#c59f61"/><path d="M115.88,293.78l8.89,2.29-.84,3.24-2.56-.66-1.66,6.43,10.5,2.7,1.65-6.43-2.53-.65.84-3.25,8.88,2.29-.83,3.25-2.57-.66-4,15.72,2.56.66-.83,3.25-8.89-2.29.84-3.25,2.53.66,1.56-6.09-10.49-2.7-1.57,6.09,2.57.66-.84,3.24L110.17,316l.83-3.25,2.53.65,4-15.72L115,297Z" style="fill:#c59f61"/><path d="M80,288.91a12.1,12.1,0,0,1,6.74-5.86,11,11,0,0,1,9.21,1,10.65,10.65,0,0,1,5.82,7.12,12.26,12.26,0,0,1-1.28,8.74,12,12,0,0,1-6.81,5.9,11,11,0,0,1-9.08-1,10.84,10.84,0,0,1-5.81-7.09A12,12,0,0,1,80,288.91Zm3.78,1.92a9.16,9.16,0,0,0-1.2,6.34,6.79,6.79,0,0,0,3.7,4.61,6.57,6.57,0,0,0,6,.53A9.37,9.37,0,0,0,96.73,298,9.86,9.86,0,0,0,98,291.91c-.27-2-1.54-3.67-3.79-4.89a6.48,6.48,0,0,0-5.93-.54A9.32,9.32,0,0,0,83.79,290.83Z" style="fill:#c59f61"/><path d="M61.65,258.92l4,3.57-2.5,9.92L66,274.92l3.81-4.27-2-1.78L70,266.36l6.91,6.15L74.69,275l-2-1.76L61.92,285.38l2,1.76-2.23,2.5-7.62-6.78c-2.13-1.89-3.32-3.75-3.59-5.57a6.2,6.2,0,0,1,1.74-5.14A6.4,6.4,0,0,1,55.72,270a6.63,6.63,0,0,1,4.08.48l1.73-7.2-2.11-1.87Zm-6.27,15.92a3.07,3.07,0,0,0-1,2.79,6.9,6.9,0,0,0,2.34,3.15l2.24,2,4.91-5.51-2.22-2c-1.4-1.25-2.6-1.86-3.59-1.85A3.67,3.67,0,0,0,55.38,274.84Z" style="fill:#c59f61"/><path d="M41.76,232.83,46.84,240l-2.74,1.94L42.76,240l-1.89,2.77,5,7L49.1,249l-1.49-2.1L50.35,245l5,7.09L52.63,254l-1.22-1.73L34.16,256l1.94,2.74-2.73,1.94-4.27-6,11.21-18.07L39,234.77Zm-2.61,12.49-4.78,7.06.13.18,8.34-2Z" style="fill:#c59f61"/><path d="M4.71,187.06l.71,2.8,15.74-4-.65-2.54,3.25-.82L25.93,191l-3.25.83-.56-2.19-10.63,2.71,0,.14,14,3.33.43,1.71L15,207.56l0,.13,11-2.78-.6-2.33,3.25-.83,2.14,8.42-3.24.82-.65-2.53-15.73,4,.71,2.8-3.25.83-1.53-6L20.17,198l0-.13L3,193.94l-1.54-6.06Z" style="fill:#c59f61"/><path d="M22.93,161.75l.27,9.17-3.35.1-.08-2.64-16.23.48.08,2.64-3.35.1L0,162.43l3.35-.1.08,2.61,16.23-.48-.08-2.61Z" style="fill:#c59f61"/><path d="M19.09,132.54a6.24,6.24,0,0,1,4.85,3.13,10.05,10.05,0,0,1,.89,6.5,17.57,17.57,0,0,1-1.23,4.37,8.77,8.77,0,0,1-2.11,3.17l-5.11-1.41.78-3.06,2.78.49a7.43,7.43,0,0,0,1.07-2,12.35,12.35,0,0,0,.43-1.78,7.79,7.79,0,0,0-.15-3.46,2.6,2.6,0,0,0-2.4-1.73,2.85,2.85,0,0,0-3.07,1.11,15.45,15.45,0,0,0-1.63,3.36,29.69,29.69,0,0,1-1.32,3.12,6.06,6.06,0,0,1-2.15,2.46,5.31,5.31,0,0,1-3.76.55c-2.37-.35-4-1.42-4.75-3.19a10,10,0,0,1-.74-5.66,13.29,13.29,0,0,1,1.23-4,8.65,8.65,0,0,1,2.1-2.85l4.82.51-.19,3.15-3-.13a7,7,0,0,0-1.06,1.84,9.49,9.49,0,0,0-.49,1.86,5.26,5.26,0,0,0,.26,2.82,2.33,2.33,0,0,0,2,1.4,2.33,2.33,0,0,0,2.52-1,15.68,15.68,0,0,0,1.44-2.87c.36-.92.8-2,1.33-3.12a7.29,7.29,0,0,1,2.34-2.88A5.68,5.68,0,0,1,19.09,132.54Z" style="fill:#c59f61"/><path d="M20.91,88.34,19.81,91l15,6.16,1-2.41L38.93,96l-3.34,8.13-3.1-1.27.85-2.09L23.19,96.64l-.05.13,9.22,11-.67,1.63L17,111l0,.13,10.45,4.29.91-2.22,3.1,1.27-3.3,8L25,121.18l1-2.42L11,112.6l-1.1,2.68L6.75,114l2.36-5.74,17.68-1.9.06-.13L15.44,92.85l2.37-5.78Z" style="fill:#c59f61"/><path d="M49.51,61.52a12.09,12.09,0,0,1,4.74,7.58A10.93,10.93,0,0,1,51.81,78a10.67,10.67,0,0,1-7.94,4.64A12.26,12.26,0,0,1,35.44,80a12,12,0,0,1-4.77-7.65,11,11,0,0,1,2.43-8.81A10.84,10.84,0,0,1,41,59,12,12,0,0,1,49.51,61.52ZM47,65A9.14,9.14,0,0,0,41,62.77a6.81,6.81,0,0,0-5.14,2.94,6.57,6.57,0,0,0-1.46,5.84,9.34,9.34,0,0,0,3.57,5.06,9.78,9.78,0,0,0,5.81,2.16c2.07,0,3.87-.94,5.43-3A6.49,6.49,0,0,0,50.63,70,9.36,9.36,0,0,0,47,65Z" style="fill:#c59f61"/><path d="M75,43a4.19,4.19,0,0,1-.71-3.18A4,4,0,0,1,76,37.06,4.24,4.24,0,0,1,82,38.17a4,4,0,0,1,.67,3.15A4.12,4.12,0,0,1,80.83,44,4.15,4.15,0,0,1,75,43Z" style="fill:#c59f61"/></g></g></svg>