<svg xmlns="http://www.w3.org/2000/svg" width="102.02" height="176.47" viewBox="0 0 102.02 176.47"><g id="Layer_2" data-name="Layer 2"><g id="Capa_1" data-name="Capa 1"><path d="M81.16,153.28A95.24,95.24,0,0,0,89,138.61a54.89,54.89,0,0,0,4.17-15.17,33.91,33.91,0,0,0-1.39-14.59,31.88,31.88,0,0,0-3-6.59c-.57-1.07-1.33-2.06-2-3.09-.35-.51-.77-1-1.15-1.47l-1.22-1.52A56.26,56.26,0,0,1,75,80.57a46,46,0,0,1-2.51-8.82,46.19,46.19,0,0,1-.84-9.07,51.72,51.72,0,0,1,3.16-17.47,58.08,58.08,0,0,1,8.28-15.1c-.7,2.77-1.46,5.48-2.07,8.19s-1.1,5.4-1.44,8.09a61.72,61.72,0,0,0-.07,15.83,49.83,49.83,0,0,0,4.24,14.67c.5,1.16,1.13,2.27,1.69,3.41s1.25,2.22,2,3.27l1,1.6,1.13,1.56c.72,1.06,1.6,2,2.39,3l1.38,1.77c.47.62,1,1.21,1.41,1.86a41.76,41.76,0,0,1,2.48,4,38.16,38.16,0,0,1,3.55,8.81,35.48,35.48,0,0,1,1.17,9.43,40.55,40.55,0,0,1-.29,4.68c-.25,1.54-.5,3.07-.89,4.55A48,48,0,0,1,93.24,141a55.15,55.15,0,0,1-5.57,6.67A45.59,45.59,0,0,1,81.16,153.28Z" style="fill:#c59f61"/><path d="M39.14,176.47a127,127,0,0,0,11.6-20.53,84.61,84.61,0,0,0,6.6-21.65,58.21,58.21,0,0,0,.71-10.91,51.14,51.14,0,0,0-1.34-10.64l-.29-1.3c-.11-.44-.26-.86-.38-1.29l-.74-2.56c-.67-1.66-1.17-3.37-2-5-.39-.81-.73-1.64-1.12-2.44L50.91,97.8l-.64-1.19-.73-1.14-1.46-2.29-3.26-5.24c-1.07-1.77-2.24-3.47-3.15-5.36L38.83,77c-.5-.91-.87-1.9-1.28-2.86l-1.19-2.91-1.17-2.92c-.35-1-.64-2-1-3l-.93-3a26.86,26.86,0,0,1-.81-3L31.19,53l-.71-6.3a69.1,69.1,0,0,1,2.64-24.88A79.82,79.82,0,0,1,43.83,0c-1.06,3.88-2.12,7.73-3,11.56l-.63,2.87-.5,2.87c-.39,1.9-.54,3.84-.79,5.73a77,77,0,0,0,.94,22.52,90,90,0,0,0,7,21.22L48,69.32a26.91,26.91,0,0,0,1.24,2.53L52,76.79C52.86,78.48,54,80,55,81.65l3.09,4.85a62.77,62.77,0,0,1,9.79,24c.16,1.09.4,2.16.48,3.25l.3,3.27c.07,1.08.06,2.18.07,3.26a29.51,29.51,0,0,1-.1,3.26,62.72,62.72,0,0,1-.67,6.44l-.63,3.16c-.2,1.05-.51,2.07-.76,3.11a73.65,73.65,0,0,1-10.69,22.55,85.74,85.74,0,0,1-7.7,9.53A67.11,67.11,0,0,1,39.14,176.47Z" style="fill:#c59f61"/><path d="M16.32,160.61a74.17,74.17,0,0,0,5.38-14.33A46.91,46.91,0,0,0,23.26,132a33.43,33.43,0,0,0-3.51-13,36.14,36.14,0,0,0-3.58-5.74c-.75-.87-1.38-1.82-2.19-2.66l-2.56-2.79c-.47-.54-1-1.06-1.41-1.61l-1.31-1.7L8,103.63l-.6-.89-1.19-1.8c-.37-.62-.71-1.26-1.06-1.89a19.49,19.49,0,0,1-1-1.93l-.92-2c-.27-.67-.52-1.35-.77-2A40.47,40.47,0,0,1,.44,84.78,42.38,42.38,0,0,1,.07,76.3a49.58,49.58,0,0,1,3.65-16A47.7,47.7,0,0,1,12,46.64a91.23,91.23,0,0,0-3.55,15,61.46,61.46,0,0,0-.52,14.6,41.62,41.62,0,0,0,10.91,24.9l2.63,3c.48.53.93,1.08,1.36,1.66l1.31,1.72c.41.6.79,1.22,1.18,1.83a17.44,17.44,0,0,1,1.12,1.87l1,1.92c.31.66.59,1.34.89,2a36.39,36.39,0,0,1,2.72,17.1,41.83,41.83,0,0,1-4.85,15.91,46.9,46.9,0,0,1-4.42,6.77A37.12,37.12,0,0,1,16.32,160.61Z" style="fill:#c59f61"/></g></g></svg>