<svg xmlns="http://www.w3.org/2000/svg" width="143.58" height="135.17" viewBox="0 0 143.58 135.17"><g id="Layer_2" data-name="Layer 2"><g id="Capa_1" data-name="Capa 1"><path d="M53.67,8.65A36.28,36.28,0,0,1,75.46,26.09L78,30.62l4.45-2.46A36.38,36.38,0,1,1,117.49,91.9L52.58,127.52a3.78,3.78,0,0,1-2.84.31A3.84,3.84,0,0,1,47.5,126L11.77,61.2A36.36,36.36,0,0,1,53.67,8.65m2-6.92A43.56,43.56,0,0,0,5.47,64.67L41.2,129.49a10.93,10.93,0,0,0,14.86,4.33L121,98.21A43.58,43.58,0,0,0,80.76,20.9,43.37,43.37,0,0,0,55.67,1.73Z" style="fill:#c59f61"/><path d="M62.14,35.34c.25-.44,1-1.44,2-1.21h0a1.34,1.34,0,0,1,1.15,1.23,4,4,0,0,1-1.81,3.4,1.7,1.7,0,0,1-1.17.19,1,1,0,0,1-.42-.27C61.34,38.07,61.45,36.54,62.14,35.34Z" style="fill:#c59f61"/><path d="M49.89,18.9c.3-.57.92-.79,1.84-.67,1.29.16,2.67,1.8,2.85,3.38a1.78,1.78,0,0,1-1.19,2,1.6,1.6,0,0,1-1,0,3.27,3.27,0,0,1-1.44-1C49.87,21.45,49.41,19.79,49.89,18.9Z" style="fill:#c59f61"/><path d="M21.74,43.19h0a1.63,1.63,0,0,1-1,0,3.27,3.27,0,0,1-1.44-1c-1.07-1.22-1.53-2.88-1.05-3.77.3-.57.92-.79,1.84-.67,1.29.16,2.67,1.8,2.85,3.38A1.77,1.77,0,0,1,21.74,43.19Z" style="fill:#c59f61"/><path d="M29,24.62a1.29,1.29,0,0,1-.26-1.55c.69-1.15,3.62-1.68,5.53-1.31l.39.1c.73.21,1.15.56,1.22,1,.14.91-.4,1.68-1.51,2.17a6.49,6.49,0,0,1-4.12.31A2.57,2.57,0,0,1,29,24.62Z" style="fill:#c59f61"/><path d="M25.11,64.29h0a1.69,1.69,0,0,1-1.49.29,2.41,2.41,0,0,1-.76-.42c-1.35-1.07-2.15-3.53-1.59-4.88a1.58,1.58,0,0,1,1.84-.91,3.12,3.12,0,0,1,.53.11,3.78,3.78,0,0,1,2.52,2.68A2.85,2.85,0,0,1,25.11,64.29Z" style="fill:#c59f61"/><path d="M41.85,36.38a1.58,1.58,0,0,1,1.85-.91,3.12,3.12,0,0,1,.53.11,3.78,3.78,0,0,1,2.51,2.68,2.86,2.86,0,0,1-1,3.13,1.67,1.67,0,0,1-1.49.28,2.14,2.14,0,0,1-.77-.41C42.09,40.19,41.29,37.72,41.85,36.38Z" style="fill:#c59f61"/><path d="M38.18,53.77c.3-.56.92-.79,1.84-.67,1.28.17,2.66,1.81,2.85,3.38a1.8,1.8,0,0,1-1.19,2.05,1.56,1.56,0,0,1-1,0,3.3,3.3,0,0,1-1.44-1C38.16,56.33,37.7,54.67,38.18,53.77Z" style="fill:#c59f61"/><path d="M37.13,84.09a1.6,1.6,0,0,1-1,0,3.27,3.27,0,0,1-1.44-1c-1.07-1.22-1.53-2.87-1-3.77.3-.57.92-.79,1.84-.67,1.29.16,2.68,1.85,2.85,3.38A1.78,1.78,0,0,1,37.13,84.09Z" style="fill:#c59f61"/><path d="M45.2,99.66a3.39,3.39,0,0,1-1-.11,1.13,1.13,0,0,1-.83-.66c-.22-.61.24-1.54,1.09-2.21a2.3,2.3,0,0,1,2.66-.42h0c.85.55.89,1.15.78,1.56A3.22,3.22,0,0,1,45.2,99.66Z" style="fill:#c59f61"/><path d="M54.65,75.33a1.7,1.7,0,0,1-1.17.19.93.93,0,0,1-.41-.26c-.56-.62-.45-2.15.23-3.34.26-.45,1-1.45,2-1.22a1.32,1.32,0,0,1,1.14,1.23A4,4,0,0,1,54.65,75.33Z" style="fill:#c59f61"/><path d="M65,58.86a1.59,1.59,0,0,1-1,0,3.4,3.4,0,0,1-1.44-1c-1.07-1.22-1.53-2.88-1.05-3.78.3-.57.92-.79,1.84-.67,1.26.16,2.68,1.83,2.85,3.38A1.77,1.77,0,0,1,65,58.86Z" style="fill:#c59f61"/><path d="M60.33,88.68a1.51,1.51,0,0,1,1.87-.09c1.54.88,2.8,3.43,2.6,4.64v0a2,2,0,0,1-1.63,1.57,1.62,1.62,0,0,1-.9,0,3.29,3.29,0,0,1-1.82-1.73C59.62,91.6,59.36,89.53,60.33,88.68Z" style="fill:#c59f61"/><path d="M58,114.82a1.66,1.66,0,0,1-1.16.19,1,1,0,0,1-.42-.26c-.56-.62-.45-2.15.24-3.34.25-.45,1-1.45,2-1.22a1.34,1.34,0,0,1,1.15,1.23A4,4,0,0,1,58,114.82Z" style="fill:#c59f61"/><path d="M73.46,80.92a3.4,3.4,0,0,1-1-.12,1.11,1.11,0,0,1-.82-.65,2.8,2.8,0,0,1,3.74-2.64c.85.55.9,1.15.78,1.56A3.23,3.23,0,0,1,73.46,80.92Z" style="fill:#c59f61"/><path d="M85.22,45.9C84.1,45.58,83.9,45,84,44.51c.17-1.57,3.18-3.61,5.11-3.46a1.85,1.85,0,0,1,.41.07c.56.16,1.22.67,1.15,2.14A2.33,2.33,0,0,1,89.68,45,5.36,5.36,0,0,1,86,46.05,5.83,5.83,0,0,1,85.22,45.9Z" style="fill:#c59f61"/><path d="M83,63.42a1.36,1.36,0,0,1-.92-.65c-.16-.35,0-.8.36-1.31.56-.7,4.15-1.6,5.5-.93h0a.88.88,0,0,1,.48,1.12c-.35,1.37-3.53,2-4.57,1.9A3.61,3.61,0,0,1,83,63.42Z" style="fill:#c59f61"/><path d="M80.66,103.66a5.48,5.48,0,0,1-3.71,1.1,5.39,5.39,0,0,1-.75-.16c-1.12-.32-1.32-.91-1.27-1.39.17-1.57,3.17-3.61,5.1-3.46a2.63,2.63,0,0,1,.42.07c.56.17,1.22.67,1.14,2.14A2.32,2.32,0,0,1,80.66,103.66Z" style="fill:#c59f61"/><path d="M106.47,40.12c.18-1.58,3.18-3.62,5.11-3.47a2.29,2.29,0,0,1,.41.08c.57.16,1.22.66,1.15,2.14a2.33,2.33,0,0,1-.94,1.69,5.4,5.4,0,0,1-3.7,1.1,6,6,0,0,1-.76-.15C106.63,41.18,106.42,40.59,106.47,40.12Z" style="fill:#c59f61"/><path d="M98.89,75a1.77,1.77,0,0,1,2,.54,1.86,1.86,0,0,1,.39,1.8,4.37,4.37,0,0,1-2.68,2.48,3.19,3.19,0,0,1-1.71.16.93.93,0,0,1-.37-.19c-.36-.3-.49-.87-.4-1.75A4.23,4.23,0,0,1,98.89,75Z" style="fill:#c59f61"/><path d="M95.61,95.72a1.53,1.53,0,0,1-1,0,3.26,3.26,0,0,1-1.44-1c-1.07-1.22-1.53-2.88-1-3.78.3-.56.92-.79,1.84-.67,1.29.16,2.67,1.81,2.85,3.38A1.78,1.78,0,0,1,95.61,95.72Z" style="fill:#c59f61"/><path d="M109.16,59.75h0a1.66,1.66,0,0,1-1.49.28,2.23,2.23,0,0,1-.77-.41c-1.35-1.07-2.15-3.54-1.58-4.88a1.56,1.56,0,0,1,1.84-.91,3.12,3.12,0,0,1,.53.11,3.78,3.78,0,0,1,2.51,2.68A2.83,2.83,0,0,1,109.16,59.75Z" style="fill:#c59f61"/><path d="M121.64,53.15a3.48,3.48,0,0,1-.12-.86,1.37,1.37,0,0,1,.36-1.06,1.28,1.28,0,0,1,1.36,0c.77.31,2.47,3.08,2.49,4.66a1.79,1.79,0,0,1,0,.34.89.89,0,0,1-.93.79C123.36,57,121.89,54.16,121.64,53.15Z" style="fill:#c59f61"/><path d="M120.58,79.85a1.75,1.75,0,0,1-1,0,1.82,1.82,0,0,1-.94-.69,6.71,6.71,0,0,1-.24-6.21,1.11,1.11,0,0,1,1.18-.66l.14,0C121,72.74,122,75,122,76.81,122.12,78.43,121.57,79.57,120.58,79.85Z" style="fill:#c59f61"/></g></g></svg>